<?xml version="1.0" standalone="no"?>
<!DOCTYPE svg PUBLIC "-//W3C//DTD SVG 20010904//EN"
 "http://www.w3.org/TR/2001/REC-SVG-20010904/DTD/svg10.dtd">
<svg version="1.0" xmlns="http://www.w3.org/2000/svg"
 width="512.000000pt" height="512.000000pt" viewBox="0 0 512.000000 512.000000"
 preserveAspectRatio="xMidYMid meet">
<metadata>
Created by potrace 1.14, written by Peter Selinger 2001-2017
</metadata>
<g transform="translate(0.000000,512.000000) scale(0.100000,-0.100000)"
fill="#000000" stroke="none">
<path d="M2264 5095 c-62 -7 -125 -16 -140 -19 -16 -4 -42 -9 -59 -12 -167
-29 -485 -135 -615 -205 -19 -10 -46 -23 -60 -29 -14 -6 -34 -16 -45 -23 -11
-7 -47 -28 -80 -47 -93 -53 -256 -166 -311 -215 -7 -5 -29 -23 -50 -40 -77
-61 -262 -253 -337 -350 -43 -55 -85 -108 -93 -118 -8 -9 -14 -20 -14 -23 0
-3 -11 -20 -24 -37 -33 -44 -114 -185 -165 -287 -102 -202 -183 -456 -227
-706 -23 -131 -27 -178 -28 -384 -1 -281 5 -359 45 -552 44 -216 118 -433 214
-628 45 -91 117 -214 127 -218 5 -2 8 -8 8 -13 0 -15 72 -118 159 -227 76 -95
229 -255 320 -335 64 -55 239 -185 291 -215 25 -14 47 -29 50 -32 5 -6 141
-84 150 -86 3 0 43 -19 90 -41 219 -105 429 -169 695 -215 110 -18 170 -22
385 -22 267 -1 339 6 549 50 347 74 675 220 966 431 50 36 97 72 105 79 8 8
40 35 70 61 104 90 330 328 330 347 0 6 25 39 53 68 9 10 17 20 17 23 0 5 62
97 71 105 3 3 9 12 12 20 4 8 21 38 37 65 121 200 233 481 286 715 45 204 56
296 59 540 5 282 -9 413 -71 667 -27 112 -90 302 -105 318 -5 5 -9 15 -9 22 0
44 -187 389 -274 506 -22 30 -48 65 -56 77 -8 13 -19 28 -25 34 -5 6 -34 41
-64 76 -59 71 -224 234 -292 290 -23 19 -47 40 -53 46 -19 18 -210 153 -236
166 -14 7 -27 15 -30 18 -21 21 -272 147 -371 185 -234 92 -413 138 -659 169
-134 18 -452 18 -596 1z"/>
</g>
</svg>
